<svg width="128" height="128" viewBox="0 0 128 128" fill="none" xmlns="http://www.w3.org/2000/svg">
<g clip-path="url(#clip0_2008_19)">
<path d="M36.9195 85.5L21.4832 44.4986L22.854 45.831L16 43.7113V42.5H26.9068L39.9591 77.6268L39.3631 77.5662L45.9787 59.7606L45.7403 61.6986L38.6479 44.5592L40.1379 45.831L33.2244 43.7113V42.5H43.7139L49.0779 56.3085H47.8859L52.1175 44.4986L52.9519 45.7704L48.0051 43.7113V42.5H59.6271V43.6507L54.3227 45.9521L56.0511 44.5592L50.2103 60.1239L49.9123 58.1859L57.0643 78.3535L56.0511 78.4141L69.0438 44.4986L69.759 45.831L62.9051 43.7113V42.5H78.2222V43.6507L71.1298 45.831L73.0966 44.4986L57.1239 84.8944L54.2631 85.5L46.5747 63.6972H48.3627L40.0187 84.8944L36.9195 85.5Z" fill="white"/>
<path d="M81.7778 62.2083V61.6452L84.4488 60.8006V43.9077L81.7778 43.0631V42.5H91.3706V43.0631L88.6996 43.9359V60.8006L91.3706 61.6452V62.2083H81.7778Z" fill="white"/>
<path d="M91.0336 62.2083V61.6452L93.7908 60.7724L93.5611 61.0821V43.6262L93.7908 43.9359L91.0336 43.0631V42.5H100.569V43.0631L97.582 43.964L97.8118 43.6262V52.2697L97.6395 52.2134L106.457 43.2883L106.514 43.5136L103.987 43.0631V42.5H111.713V43.0631L108.295 43.964L108.726 43.7107L101.23 50.8901L101.258 49.8202L110.219 61.1385L109.903 60.8569L112 61.6452V62.2083H105.595L98.5872 53.2551H98.9032L97.6395 54.4939L97.8118 54.0716V61.054L97.582 60.7443L100.282 61.6452V62.2083H91.0336Z" fill="white"/>
<path d="M82.4956 85.5C80.6182 85.5 78.96 85.0872 77.5212 84.2615C76.0824 83.4179 74.9506 82.2601 74.1259 80.7883C73.3012 79.3165 72.8889 77.6292 72.8889 75.7266C72.8889 74.2727 73.1258 72.9445 73.5995 71.7419C74.0733 70.5213 74.7313 69.4713 75.5735 68.5918C76.4333 67.6943 77.4422 67.0032 78.6003 66.5186C79.7759 66.034 81.0744 65.7917 82.4956 65.7917C83.8994 65.7917 85.189 66.034 86.3647 66.5186C87.5578 66.9853 88.5843 67.6494 89.4441 68.511C90.3039 69.3726 90.9706 70.3957 91.4444 71.5803C91.9181 72.747 92.155 74.0394 92.155 75.4574C92.155 76.9292 91.9181 78.2754 91.4444 79.496C90.9706 80.7165 90.3039 81.7755 89.4441 82.673C88.5843 83.5704 87.5578 84.2705 86.3647 84.7731C85.189 85.2577 83.8994 85.5 82.4956 85.5ZM83.101 84.3961C84.6451 84.3961 85.8295 83.7948 86.6542 82.5922C87.4964 81.3717 87.9175 79.6306 87.9175 77.369C87.9175 73.9945 87.3911 71.4098 86.3383 69.6149C85.3031 67.802 83.8204 66.8955 81.8903 66.8955C80.3462 66.8955 79.1618 67.5058 78.3371 68.7264C77.53 69.929 77.1264 71.6521 77.1264 73.8958C77.1264 77.2702 77.6352 79.8639 78.6529 81.6768C79.6882 83.4897 81.1709 84.3961 83.101 84.3961Z" fill="white"/>
<path d="M92.7865 85.0692V84.5307L95.3132 83.6961L95.1026 83.9923V67.2994L95.3132 67.5956L92.7865 66.7609V66.2224H101.525V66.7609L98.7874 67.6225L98.998 67.2994V75.5651L98.8401 75.5112L106.92 66.9763L106.973 67.1917L104.657 66.7609V66.2224H111.737V66.7609L108.605 67.6225L109 67.3802L102.13 74.2458L102.156 73.2227L110.368 84.0461L110.079 83.7769L112 84.5307V85.0692H106.131L99.7086 76.5074H99.9981L98.8401 77.6921L98.998 77.2882V83.9653L98.7874 83.6692L101.261 84.5307V85.0692H92.7865Z" fill="white"/>
</g>
<defs>
<clipPath id="clip0_2008_19">
<rect width="128" height="128" fill="white"/>
</clipPath>
</defs>
</svg>
